# xmcd
# 
# Track frame offsets:
#     150
#     24529
#     51059
#     67363
#     100197
#     103310
#     119307
#     149193
#     171250
#     189874
#     192749
# 
# Disc length: 2939
# 
# Revision: 3
# Processed by: cddbd v1.5.2PL0 Copyright (c) Steve Scherf et al.
# Submitted via: BonkEnc v1.0
# 
DISCID=ad0b790b
DTITLE=Bill Evans - Everybody Digs Bill Evans
DYEAR=1958
DGENRE=Jazz
TTITLE0=Minority
TTITLE1=Young And Foolish
TTITLE2=Lucky To Be Me
TTITLE3=Night And Day
TTITLE4=Epilogue
TTITLE5=Tenderly
TTITLE6=Peace Piece
TTITLE7=What Is There To Say?
TTITLE8=Oleo
TTITLE9=Epilogue
TTITLE10=Some Other Time
EXTD=YEAR: 1958
EXTT0=
EXTT1=
EXTT2=
EXTT3=
EXTT4=
EXTT5=
EXTT6=
EXTT7=
EXTT8=
EXTT9=
EXTT10=
PLAYORDER=
